<?xml version="1.0" encoding="utf-8"?>
<!-- Generator: Adobe Illustrator 19.2.1, SVG Export Plug-In . SVG Version: 6.00 Build 0)  -->
<svg version="1.1" id="layer" xmlns="http://www.w3.org/2000/svg" xmlns:xlink="http://www.w3.org/1999/xlink" x="0px" y="0px"
	 viewBox="0 0 652 652" style="enable-background:new 0 0 652 652;" xml:space="preserve">
<style type="text/css">
	.st0{fill:#0B63CE;}
	.st1{fill:#FFFFFF;}
	.st2{fill:#101820;}
</style>
<path class="st0" d="M20.2,255.9c0-5.1,4.1-9.1,9.1-9.1h105.2c5.1,0,9.1,4.1,9.1,9.1v105.2c0,5.1-4.1,9.1-9.1,9.1H29.3
	c-5.1,0-9.1-4.1-9.1-9.1V255.9z"/>
<path class="st1" d="M38.5,267.4c0-1.3,1-2.3,2.3-2.3h13.7c1.3,0,2.3,1,2.3,2.3v13.7c0,1.3-1,2.3-2.3,2.3H40.8c-1.3,0-2.3-1-2.3-2.3
	V267.4z"/>
<path class="st1" d="M63.6,265.1c-1.3,0-2.3,1-2.3,2.3v13.7c0,1.3,1,2.3,2.3,2.3h13.7c1.3,0,2.3-1,2.3-2.3v-13.7
	c0-1.3-1-2.3-2.3-2.3H63.6z"/>
<path class="st1" d="M84.2,267.4c0-1.3,1-2.3,2.3-2.3h13.7c1.3,0,2.3,1,2.3,2.3v13.7c0,1.3-1,2.3-2.3,2.3H86.5c-1.3,0-2.3-1-2.3-2.3
	V267.4z"/>
<path class="st1" d="M40.8,288c-1.3,0-2.3,1-2.3,2.3V304c0,1.3,1,2.3,2.3,2.3h13.7c1.3,0,2.3-1,2.3-2.3v-13.7c0-1.3-1-2.3-2.3-2.3
	H40.8z"/>
<path class="st1" d="M61.3,290.2c0-1.3,1-2.3,2.3-2.3h13.7c1.3,0,2.3,1,2.3,2.3V304c0,1.3-1,2.3-2.3,2.3H63.6c-1.3,0-2.3-1-2.3-2.3
	V290.2z"/>
<path class="st1" d="M109.4,288c-1.3,0-2.3,1-2.3,2.3V304c0,1.3,1,2.3,2.3,2.3h13.7c1.3,0,2.3-1,2.3-2.3v-13.7c0-1.3-1-2.3-2.3-2.3
	H109.4z"/>
<path class="st1" d="M38.5,313.1c0-1.3,1-2.3,2.3-2.3h13.7c1.3,0,2.3,1,2.3,2.3v13.7c0,1.3-1,2.3-2.3,2.3H40.8c-1.3,0-2.3-1-2.3-2.3
	V313.1z"/>
<path class="st1" d="M86.5,310.8c-1.3,0-2.3,1-2.3,2.3v13.7c0,1.3,1,2.3,2.3,2.3h13.7c1.3,0,2.3-1,2.3-2.3v-13.7
	c0-1.3-1-2.3-2.3-2.3H86.5z"/>
<path class="st1" d="M107.1,313.1c0-1.3,1-2.3,2.3-2.3h13.7c1.3,0,2.3,1,2.3,2.3v13.7c0,1.3-1,2.3-2.3,2.3h-13.7
	c-1.3,0-2.3-1-2.3-2.3V313.1z"/>
<path class="st1" d="M63.6,333.7c-1.3,0-2.3,1-2.3,2.3v13.7c0,1.3,1,2.3,2.3,2.3h13.7c1.3,0,2.3-1,2.3-2.3V336c0-1.3-1-2.3-2.3-2.3
	H63.6z"/>
<path class="st1" d="M84.2,336c0-1.3,1-2.3,2.3-2.3h13.7c1.3,0,2.3,1,2.3,2.3v13.7c0,1.3-1,2.3-2.3,2.3H86.5c-1.3,0-2.3-1-2.3-2.3
	V336z"/>
<path class="st1" d="M109.4,333.7c-1.3,0-2.3,1-2.3,2.3v13.7c0,1.3,1,2.3,2.3,2.3h13.7c1.3,0,2.3-1,2.3-2.3V336c0-1.3-1-2.3-2.3-2.3
	H109.4z"/>
<path class="st2" d="M245.2,360.5H191V248.4c0-0.7-0.5-1.1-1.1-1.1h-8.5c-0.7,0-1.1,0.5-1.1,1.1v120.3c0,0.7,0.5,1.1,1.1,1.1h63.8
	c0.7,0,1.1-0.5,1.1-1.1v-7.3C246.4,360.9,245.9,360.5,245.2,360.5z M325.5,279.9h-19.2v-17.8c0-12.6,4.1-18.8,12.6-18.8
	c3.4,0,6.9,0.9,10.1,2.3c0.2,0.2,0.7,0.2,0.9,0l0.7-0.7l2.3-6.6c0.2-0.5,0-1.1-0.7-1.4c-4.3-1.8-9.1-3-13.3-3
	c-14.6,0-22.9,9.8-22.9,27.4v18.5l-11,0.7c-0.7,0-1.1,0.5-1.1,1.1v6.2c0,0.7,0.5,1.1,1.1,1.1h11v79.6c0,0.7,0.5,1.1,1.1,1.1h8
	c0.7,0,1.1-0.5,1.1-1.1v-79.6h19.2c0.7,0,1.1-0.5,1.1-1.1v-7.1C326.6,280.4,326.2,279.9,325.5,279.9L325.5,279.9z M367.1,277.7
	c-19,0-39.3,16.7-39.3,47.3c0,27.7,17.2,47.1,41.6,47.1c13,0,21-4.3,28.4-8.7c0.5-0.2,0.7-0.9,0.5-1.6l-3.4-6.2
	c-0.2-0.2-0.5-0.5-0.7-0.5s-0.7,0-0.9,0.2c-7.3,5.3-14.6,7.5-22.9,7.5c-18.5,0-31.1-14.4-31.8-35.7h62c0.5,0,0.9-0.5,1.1-0.9
	c0.5-2.3,0.5-4.8,0.5-6.9C401.7,293.2,388.9,277.7,367.1,277.7z M338.3,318.1c2.1-18.5,13.7-31.3,28.8-31.3
	c15.8,0,24.5,11.2,24.7,31.3H338.3L338.3,318.1z M460.2,279.7c-2.7-1.4-5.5-1.8-9.1-1.8c-9.1,0-17.8,5.7-24.5,16.5l-0.7-13.3
	c0-0.7-0.5-1.1-1.1-1.1h-6.9c-0.7,0-1.1,0.5-1.1,1.1v87.8c0,0.7,0.5,1.1,1.1,1.1h8c0.7,0,1.1-0.5,1.1-1.1v-59.5
	c5.5-13.7,14-21.7,22.9-21.7c3.2,0,4.6,0.5,7.5,1.4h0.9c0.2-0.2,0.5-0.5,0.5-0.7l1.8-7.3C460.9,280.4,460.7,279.9,460.2,279.7z
	 M532.5,279.9h-7.1c-0.7,0-1.1,0.5-1.1,1.1l-0.5,6.6c-7.5-5.9-14.9-9.8-25.4-9.8c-23.3,0-40,19.9-40,47.3c0,29.5,14,47.1,37.5,47.1
	c9.6,0,19.2-4.3,28.1-12.6l0.7,9.4c0,0.7,0.5,1.1,1.1,1.1h6.9c0.7,0,1.1-0.5,1.1-1.1v-88.1C533.6,280.4,533.2,279.9,532.5,279.9
	L532.5,279.9z M523.3,297.8v51c-9.4,9.6-17.6,13.7-26.3,13.7c-17.4,0-27.9-14.2-27.9-37.7c0-21.3,13-38,29.7-38
	C507.6,287,514.9,290.2,523.3,297.8z M619.8,280.4c-0.2-0.2-0.5-0.5-0.9-0.5h-8.2c-0.5,0-0.9,0.2-1.1,0.7l-18.8,55.1
	c-0.9,3-2.1,6.2-3,9.4c-1.4,4.6-3,9.1-4.3,13.3c-1.8-4.6-3.7-9.6-5.5-14.4c-1.1-3-2.3-5.7-3.2-8.5l-21-55.1
	c-0.2-0.5-0.7-0.7-1.1-0.7h-8.7c-0.5,0-0.7,0.2-0.9,0.5c-0.2,0.2-0.2,0.7,0,1.1l35.9,89l-2.3,7.3c-3.4,10.3-9.8,22.4-21.5,22.4
	c-2.3,0-5-0.7-6.9-1.4h-0.9l-0.7,0.7l-1.8,7.1c-0.2,0.5,0.2,1.1,0.7,1.4c2.5,1.1,6.2,1.8,9.4,1.8c13.5,0,24-10.3,30.6-29.7
	l34.5-98.8C620.3,281.1,620.1,280.6,619.8,280.4L619.8,280.4z M268.1,260c1.4,0,2.5-1.1,2.5-2.5v-8.2c0-1.4-1.1-2.5-2.5-2.5h-8.2
	c-1.4,0-2.5,1.1-2.5,2.5v8.2c0,1.4,1.1,2.5,2.5,2.5H268.1z M259.9,279.9h8c0.7,0,1.1,0.5,1.1,1.1v87.8c0,0.7-0.5,1.1-1.1,1.1h-8
	c-0.7,0-1.1-0.5-1.1-1.1v-87.8C258.7,280.4,259.2,279.9,259.9,279.9z"/>
</svg>
